<?xml version="1.0" encoding="UTF-8"?>
<svg width="760px" height="150px" viewBox="0 0 760 150" version="1.1" xmlns="http://www.w3.org/2000/svg" xmlns:xlink="http://www.w3.org/1999/xlink">
    <title>1A1925A8-99BF-44A1-8CBA-EA60203B485A@3x</title>
    <defs>
        <linearGradient x1="38.2820075%" y1="31.4170895%" x2="59.3816399%" y2="74.1302944%" id="linearGradient-1">
            <stop stop-color="#4B8BBE" offset="0%"></stop>
            <stop stop-color="#306998" offset="100%"></stop>
        </linearGradient>
        <path d="M14.7773437,149.004883 C13.577474,148.941732 12.5512695,148.783854 11.6987305,148.53125 C10.8461914,148.278646 9.88313802,147.868164 8.80957031,147.299805 C4.45214844,145.089518 1.64192708,141.426758 0.37890625,136.311523 C0.126302083,135.49056 0,134.827474 0,134.322266 C0,133.817057 0,133.311849 0,132.806641 L0,131.006836 C0.126302083,125.702148 1.92610677,120.492187 5.39941406,115.376953 C7.29394531,112.598307 9.81998698,109.819661 12.9775391,107.041016 C16.5771484,103.757161 20.492513,100.915365 24.7236328,98.515625 C25.8603516,97.8841146 27.4075521,97.0789388 29.3652344,96.1000977 C31.3229167,95.1212565 32.8385417,94.4108073 33.9121094,93.96875 C34.2278646,93.7792969 34.5120443,93.6214193 34.7646484,93.4951172 L35.0488281,93.4003906 C35.0488281,93.3372396 34.922526,92.8951823 34.6699219,92.0742188 C34.4173177,91.2532552 34.1015625,90.2744141 33.7226562,89.1376953 C32.9016927,86.7379557 32.1123047,84.543457 31.3544922,82.5541992 C30.5966797,80.5649414 29.4915365,77.8652344 28.0390625,74.4550781 C25.1972656,67.9505208 23.129069,62.6931966 21.8344727,58.6831055 C20.5398763,54.6730143 19.7347005,51.0260417 19.4189453,47.7421875 C19.2926432,46.6686198 19.2294922,45.5476888 19.2294922,44.3793945 C19.2294922,43.2111003 19.2294922,42.2796224 19.2294922,41.5849609 L19.2294922,39.40625 C19.2294922,37.953776 19.2926432,36.9433594 19.4189453,36.375 C19.4820964,35.9960938 19.5610352,35.5698242 19.6557617,35.0961914 C19.7504883,34.6225586 19.8294271,34.1962891 19.8925781,33.8173828 C20.0820312,32.8701172 20.2399089,32.1438802 20.3662109,31.6386719 C20.492513,31.1334635 20.5872396,30.7703451 20.6503906,30.5493164 C20.7135417,30.3282878 20.7451172,30.1546224 20.7451172,30.0283203 C20.8082682,29.9020182 20.9187826,29.6336263 21.0766602,29.2231445 C21.2345378,28.8126628 21.4082031,28.3548177 21.5976562,27.8496094 C23.8079427,21.7871094 27.5022786,16.0087891 32.6806641,10.5146484 C33.1227214,10.0725911 33.6910807,9.52001953 34.3857422,8.85693359 C35.0804036,8.19384766 35.7592773,7.578125 36.4223633,7.00976562 C37.0854492,6.44140625 37.5748698,6.0625 37.890625,5.87304688 C38.1432292,5.74674479 38.4589844,5.52571615 38.8378906,5.20996094 C39.0273438,5.08365885 39.2483724,4.95735677 39.5009766,4.83105469 C41.1429036,3.6311849 42.9427083,2.60498047 44.9003906,1.75244141 C46.8580729,0.899902344 48.5947266,0.37890625 50.1103516,0.189453125 C50.805013,0.126302083 51.5628255,0.0789388021 52.3837891,0.0473632812 C53.2047526,0.0157877604 53.8994141,0 54.4677734,0 L55.9833984,0.0947265625 C56.9938151,0.157877604 57.6884766,0.221028646 58.0673828,0.284179688 C59.3304036,0.663085938 60.2776693,0.963053385 60.9091797,1.18408203 C61.5406901,1.40511068 62.1722005,1.6735026 62.8037109,1.98925781 C68.1083984,4.57845052 71.5501302,8.1780599 73.1289062,12.7880859 C74.7076823,17.398112 75.4970703,21.5345052 75.4970703,25.1972656 C75.4970703,28.4811198 75.055013,31.9860026 74.1708984,35.7119141 C74.0445964,36.0908203 73.8551432,36.7381185 73.6025391,37.6538086 C73.3499349,38.5694987 73.0657552,39.5167643 72.75,40.4956055 C72.4342448,41.4744466 72.1816406,42.2480469 71.9921875,42.8164063 C71.4869792,44.2057292 70.8238932,45.8318685 70.0029297,47.6948242 C69.1819661,49.5577799 68.3610026,51.2312826 67.5400391,52.715332 C66.7190755,54.1993815 66.1191406,55.0992839 65.7402344,55.4150391 C65.4876302,55.6044922 65.2034505,55.6992188 64.8876953,55.6992188 L64.6035156,55.6992188 C64.2246094,55.6360677 63.8772786,55.4781901 63.5615234,55.2255859 C63.3089193,54.9729818 63.1826172,54.6572266 63.1826172,54.2783203 L63.2773438,53.8046875 C63.3404948,53.1731771 63.65625,52.2890625 64.2246094,51.1523438 C65.6770833,48.1210937 66.9401042,45.0582682 68.0136719,41.9638672 C68.5188802,40.5113932 68.8977865,39.3115234 69.1503906,38.3642578 C69.4029948,37.4169922 69.6240234,36.4539388 69.8134766,35.4750977 C70.0029297,34.4962565 70.2239583,33.1858724 70.4765625,31.5439453 C70.7291667,29.7125651 70.8554688,28.007487 70.8554688,26.4287109 C70.8554688,20.8082682 69.2766927,16.1035156 66.1191406,12.3144531 C63.1510417,9.09375 59.4882813,7.48339844 55.1308594,7.48339844 C53.8678385,7.48339844 52.7784831,7.60970052 51.862793,7.86230469 C50.9471029,8.11490885 49.8893229,8.52539062 48.6894531,9.09375 C42.5638021,12.5039062 37.3538411,18.1875 33.0595703,26.1445312 C32.554362,27.218099 32.159668,28.0390625 31.8754883,28.6074219 C31.5913086,29.1757812 31.3387044,29.8072917 31.1176758,30.5019531 C30.8966471,31.1966146 30.5651042,32.2386068 30.1230469,33.6279297 L30.1230469,33.8173828 C29.7441406,35.1435547 29.4915365,36.6749674 29.3652344,38.4116211 C29.2389323,40.1482747 29.1757812,41.4902344 29.1757812,42.4375 C29.1757812,43.7636719 29.2389323,45.0266927 29.3652344,46.2265625 C29.4915365,47.4264323 29.7441406,48.9262695 30.1230469,50.7260742 C30.5019531,52.5258789 30.9440104,54.1520182 31.4492188,55.6044922 C31.764974,56.5517578 32.222819,57.8621419 32.8227539,59.5356445 C33.4226888,61.2091471 34.0226237,62.8352865 34.6225586,64.4140625 C35.2224935,65.9928385 35.648763,67.1295573 35.9013672,67.8242188 C36.9117839,70.0976562 38.1116536,73.0499674 39.5009766,76.6811523 C40.8902995,80.3123372 41.9322917,83.1699219 42.6269531,85.2539062 C43.0058594,86.5169271 43.3374023,87.574707 43.621582,88.4272461 C43.9057617,89.2797852 44.0794271,89.7376302 44.1425781,89.8007812 C45.5950521,89.1061198 48.0895182,88.1588542 51.6259766,86.9589844 C55.1624349,85.7591146 58.9199219,84.5750326 62.8984375,83.4067383 C66.8769531,82.238444 70.1923828,81.3069661 72.8447266,80.6123047 C73.539388,80.4860026 74.1708984,80.4228516 74.7392578,80.4228516 C75.9391276,80.4228516 76.6337891,80.7701823 76.8232422,81.4648437 C76.8863932,81.5911458 76.9179688,81.7174479 76.9179688,81.84375 C76.9179688,82.6647135 75.9707031,83.422526 74.0761719,84.1171875 C71.234375,85.0644531 67.9031576,86.2169596 64.0825195,87.574707 C60.2618815,88.9324544 56.9938151,90.1165365 54.2783203,91.1269531 C53.7099609,91.3164062 53.2047526,91.5058594 52.7626953,91.6953125 C47.9000651,93.4635417 45.4371745,94.3792318 45.3740234,94.4423828 L45.3740234,95.0107422 C45.4371745,95.3896484 45.5003255,95.8317057 45.5634766,96.3369141 C45.6897786,96.8421224 45.800293,97.3631185 45.8950195,97.8999023 C45.9897461,98.4366862 46.0371094,98.8629557 46.0371094,99.1787109 C46.1002604,99.4944661 46.1634115,99.9049479 46.2265625,100.410156 C46.2897135,100.915365 46.3528646,101.388997 46.4160156,101.831055 C46.4791667,102.525716 46.5107422,103.69401 46.5107422,105.335938 C46.5107422,106.977865 46.4791667,108.635579 46.4160156,110.309082 C46.3528646,111.982585 46.2897135,113.229818 46.2265625,114.050781 C45.6582031,118.21875 44.6477865,122.039388 43.1953125,125.512695 C41.0481771,131.006836 38.1274414,135.727376 34.4331055,139.674316 C30.7387695,143.621257 26.6813151,146.41569 22.2607422,148.057617 C21.7555339,148.183919 21.1082357,148.357585 20.3188477,148.578613 C19.5294596,148.799642 18.8505859,148.95752 18.2822266,149.052246 C17.7138672,149.146973 17.3033854,149.194336 17.0507812,149.194336 L16.8613281,149.194336 C16.7981771,149.194336 16.5771484,149.178548 16.1982422,149.146973 C15.8193359,149.115397 15.3457031,149.068034 14.7773437,149.004883 Z M18.7558594,141.237305 C23.5553385,139.342773 27.9127604,135.20638 31.828125,128.828125 C32.7122396,127.438802 33.5332031,125.812663 34.2910156,123.949707 C35.0488281,122.086751 35.6171875,120.302734 35.9960938,118.597656 C36.6907552,115.81901 37.0696615,113.466634 37.1328125,111.540527 C37.1959635,109.614421 37.2275391,108.49349 37.2275391,108.177734 C37.2275391,105.146484 36.9749349,102.399414 36.4697266,99.9365234 C36.4065755,99.4944661 36.3434245,99.1155599 36.2802734,98.7998047 C36.2171224,98.4840495 36.1855469,98.2945964 36.1855469,98.2314453 C36.0592448,98.2314453 35.6171875,98.4208984 34.859375,98.7998047 C33.9752604,99.241862 32.9174805,99.7944336 31.6860352,100.45752 C30.4545898,101.120605 29.2389323,101.767904 28.0390625,102.399414 C25.6393229,103.725586 23.0974935,105.446452 20.4135742,107.562012 C17.7296549,109.677572 15.5351562,111.651042 13.8300781,113.482422 C9.78841146,117.902995 7.23079427,122.639323 6.15722656,127.691406 C6.03092448,128.386068 5.96777344,129.207031 5.96777344,130.154297 L5.96777344,131.196289 C5.96777344,132.648763 6.0625,133.753906 6.25195312,134.511719 C7.13606771,137.542969 8.44645182,139.532227 10.1831055,140.479492 C11.9197591,141.426758 13.5458984,141.900391 15.0615234,141.900391 C16.1982422,141.900391 17.4296875,141.679362 18.7558594,141.237305 Z" id="path-2"></path>
        <linearGradient x1="37.9789418%" y1="31.4170895%" x2="59.6242799%" y2="74.1302944%" id="linearGradient-3">
            <stop stop-color="#4B8BBE" offset="0%"></stop>
            <stop stop-color="#306998" offset="100%"></stop>
        </linearGradient>
        <path d="M78.0546875,136.879883 C75.0234375,136.12207 72.9710286,133.627604 71.8974609,129.396484 C71.7080078,128.259766 71.6132812,126.870443 71.6132812,125.228516 L71.6132812,123.99707 C71.6132812,121.786784 71.8027344,119.829102 72.1816406,118.124023 C72.6236979,115.787435 73.2078451,113.592936 73.934082,111.540527 C74.660319,109.488118 75.718099,107.135742 77.1074219,104.483398 C78.0546875,102.525716 78.9545898,100.868001 79.8071289,99.5102539 C80.659668,98.1525065 81.7174479,96.6842448 82.9804688,95.1054688 L84.9697266,92.453125 C83.8330078,92.7057292 82.7278646,92.8320312 81.6542969,92.8320312 C79.3808594,92.8320312 77.3284505,92.2636719 75.4970703,91.1269531 C72.7815755,89.485026 71.0764974,86.8326823 70.3818359,83.1699219 C70.3186849,82.5384115 70.2871094,81.8753255 70.2871094,81.1806641 C70.2871094,78.6546224 70.8554688,76.0338542 71.9921875,73.3183594 C73.4446615,69.8450521 75.5602214,66.9716797 78.3388672,64.6982422 C80.2965495,62.9931641 82.2542318,62.140625 84.2119141,62.140625 C84.9065755,62.140625 85.4117839,62.1879883 85.7275391,62.2827148 C86.0432943,62.3774414 86.453776,62.5826823 86.9589844,62.8984375 C88.5377604,63.7825521 89.3271484,65.2981771 89.3271484,67.4453125 C89.3271484,69.8450521 88.3483073,73.0657552 86.390625,77.1074219 C85.8222656,78.1809896 85.0802409,79.4440104 84.1645508,80.8964844 C83.2488607,82.3489583 82.4436849,83.5488281 81.7490234,84.4960938 L80.8964844,85.4433594 C81.906901,86.1380208 83.3277995,86.8800456 85.1591797,87.6694336 C86.9905599,88.4588216 88.4746094,88.9798177 89.6113281,89.2324219 C91.2532552,89.6744792 92.2163086,90.3375651 92.5004883,91.2216797 C92.784668,92.1057943 92.9267578,92.8320312 92.9267578,93.4003906 C92.9267578,94.1582031 92.7688802,94.9475911 92.453125,95.7685547 C92.0110677,97.2841797 91.0638021,99.6207682 89.6113281,102.77832 C86.8326823,108.651367 84.4960938,114.682292 82.6015625,120.871094 C81.5279948,124.533854 80.9912109,126.965169 80.9912109,128.165039 L80.9912109,128.543945 C81.054362,129.049154 81.2438151,129.301758 81.5595703,129.301758 C81.8753255,129.301758 82.3489583,128.986003 82.9804688,128.354492 C84.1803385,127.154622 85.7275391,125.165365 87.6220703,122.386719 C91.4111328,117.082031 94.8528646,111.651042 97.9472656,106.09375 C101.041667,100.536458 103.757161,95.3896484 106.09375,90.6533203 C106.662109,89.5797526 107.135742,89.027181 107.514648,88.9956055 C107.893555,88.9640299 108.114583,88.9482422 108.177734,88.9482422 C108.682943,88.9482422 109.030273,89.2008464 109.219727,89.7060547 C109.282878,89.8955078 109.314453,90.1165365 109.314453,90.3691406 C109.314453,90.9375 109.125,91.6321615 108.746094,92.453125 C108.177734,93.6529948 107.388346,95.3264974 106.37793,97.4736328 C104.799154,100.883789 102.873047,104.846517 100.599609,109.361816 C98.3261719,113.877116 95.879069,118.297689 93.2583008,122.623535 C90.6375326,126.949382 88.0641276,130.406901 85.5380859,132.996094 C83.0120443,135.585286 80.7070312,136.879883 78.6230469,136.879883 L78.0546875,136.879883 Z M81.3701172,79.0019531 C83.0751953,76.5390625 84.3066406,73.9814453 85.0644531,71.3291016 C85.3802083,70.1923828 85.5380859,69.4029948 85.5380859,68.9609375 C85.5380859,68.5188802 85.5380859,68.266276 85.5380859,68.203125 C85.5380859,67.6979167 85.4117839,67.4453125 85.1591797,67.4453125 C84.9697266,67.4453125 84.6223958,67.7768555 84.1171875,68.4399414 C83.6119792,69.1030273 83.1067708,69.8450521 82.6015625,70.6660156 C81.84375,72.1816406 81.1964518,73.9025065 80.659668,75.8286133 C80.1228841,77.7547201 79.8229167,79.3177083 79.7597656,80.5175781 C79.7597656,80.7701823 79.7913411,80.8964844 79.8544922,80.8964844 C79.9176432,80.8964844 79.9807943,80.8649089 80.0439453,80.8017578 C80.2965495,80.6123047 80.7386068,80.0123698 81.3701172,79.0019531 Z" id="path-4"></path>
        <linearGradient x1="39.6314406%" y1="31.4170895%" x2="58.301259%" y2="74.1302944%" id="linearGradient-5">
            <stop stop-color="#4B8BBE" offset="0%"></stop>
            <stop stop-color="#306998" offset="100%"></stop>
        </linearGradient>
        <path d="M119.734375,54.5625 C121.818359,54.7519531 122.970866,55.2729492 123.191895,56.1254883 C123.412923,56.9780273 123.523438,57.5621745 123.523438,57.8779297 C123.523438,58.9514974 122.828776,60.0566406 121.439453,61.1933594 C120.61849,61.5091146 119.892253,61.6669922 119.260742,61.6669922 C118.439779,61.6669922 117.776693,61.351237 117.271484,60.7197266 C116.703125,59.9619141 116.418945,59.1409505 116.418945,58.2568359 C116.418945,57.8147786 116.482096,57.3411458 116.608398,56.8359375 C116.987305,55.3834635 118.029297,54.625651 119.734375,54.5625 Z M108.746094,104.862305 C106.220052,104.104492 104.578125,101.894206 103.820312,98.2314453 C103.757161,97.9156901 103.709798,97.3789062 103.678223,96.6210938 C103.646647,95.8632812 103.630859,95.1054688 103.630859,94.3476562 C103.630859,90.1796875 104.672852,85.5065104 106.756836,80.328125 C109.219727,74.0130208 111.777344,70.8554688 114.429688,70.8554688 C116.38737,70.8554688 117.713542,71.6448568 118.408203,73.2236328 C118.660807,73.7288411 118.787109,74.3603516 118.787109,75.1181641 C118.787109,75.5602214 118.755534,76.0338542 118.692383,76.5390625 C118.439779,77.9283854 117.745117,79.9807943 116.608398,82.6962891 C113.956055,89.4534505 112.345703,94.6002604 111.777344,98.1367188 L111.682617,98.7050781 C111.682617,99.1471354 111.808919,99.3681641 112.061523,99.3681641 C112.250977,99.3681641 112.44043,99.305013 112.629883,99.1787109 C113.387695,98.7998047 114.382324,97.9630534 115.61377,96.668457 C116.845215,95.3738607 118.124023,93.9371745 119.450195,92.3583984 C120.776367,90.7796224 121.944661,89.358724 122.955078,88.0957031 C123.965495,86.8326823 124.597005,86.0117188 124.849609,85.6328125 C125.670573,84.6223958 126.39681,84.1171875 127.02832,84.1171875 C127.217773,84.1171875 127.375651,84.148763 127.501953,84.2119141 C127.880859,84.4013672 128.070312,84.7171224 128.070312,85.1591797 C128.070312,85.664388 127.912435,86.2643229 127.59668,86.9589844 C126.649414,88.7272135 125.070638,91.1111654 122.860352,94.1108398 C120.650065,97.1105143 118.36084,99.6681315 115.992676,101.783691 C113.624512,103.899251 111.52474,104.957031 109.693359,104.957031 C109.377604,104.957031 109.061849,104.925456 108.746094,104.862305 Z" id="path-6"></path>
        <linearGradient x1="39.5872654%" y1="31.4170895%" x2="58.3366265%" y2="74.1302944%" id="linearGradient-7">
            <stop stop-color="#4B8BBE" offset="0%"></stop>
            <stop stop-color="#306998" offset="100%"></stop>
        </linearGradient>
        <path d="M130.249023,142.374023 C128.165039,141.995117 126.39681,141.047852 124.944336,139.532227 C123.239258,137.953451 122.386719,135.585286 122.386719,132.427734 C122.386719,131.922526 122.418294,131.385742 122.481445,130.817383 C122.734049,126.902018 124.186523,120.650065 126.838867,112.061523 C127.280924,110.609049 127.675618,109.346029 128.022949,108.272461 C128.37028,107.198893 128.607096,106.567383 128.733398,106.37793 C128.796549,106.188477 129.00179,105.572754 129.349121,104.530762 C129.696452,103.48877 130.122721,102.273112 130.62793,100.883789 C131.827799,97.2210286 132.964518,93.8582357 134.038086,90.7954102 C135.111654,87.7325846 135.77474,85.8854167 136.027344,85.2539062 C136.153646,85.0013021 136.343099,84.4960938 136.595703,83.7382812 C136.848307,82.9804688 137.132487,82.1279297 137.448242,81.1806641 C137.763997,80.1702474 138.127116,79.1124674 138.537598,78.0073242 C138.948079,76.902181 139.279622,75.9707031 139.532227,75.2128906 C139.847982,74.4550781 140.226888,73.4604492 140.668945,72.2290039 C141.111003,70.9975586 141.55306,69.8450521 141.995117,68.7714844 C142.626628,67.0032552 143.447591,64.7298177 144.458008,61.9511719 C145.468424,59.172526 146.984049,55.0992839 149.004883,49.7314453 C149.573242,48.2158203 150.141602,46.6686198 150.709961,45.0898438 C151.27832,43.5110677 151.720378,42.2796224 152.036133,41.3955078 C152.415039,40.5113932 152.857096,39.3904622 153.362305,38.0327148 C153.867513,36.6749674 154.372721,35.3961589 154.87793,34.1962891 C155.193685,33.3121745 155.541016,32.4280599 155.919922,31.5439453 C157.498698,27.5022786 158.919596,23.855306 160.182617,20.6030273 C161.445638,17.3507487 162.077148,15.5351562 162.077148,15.15625 C162.077148,14.6510417 162.34554,13.7669271 162.882324,12.5039062 C163.419108,11.2408854 163.97168,10.1673177 164.540039,9.28320312 C165.234701,8.3359375 165.929362,7.76757812 166.624023,7.578125 C167.318685,7.38867188 167.823893,7.29394531 168.139648,7.29394531 C168.83431,7.29394531 169.560547,7.48339844 170.318359,7.86230469 C171.391927,8.43066406 172.14974,9.12532552 172.591797,9.94628906 C173.033854,10.7672526 173.286458,11.9671224 173.349609,13.5458984 C173.349609,15.0615234 172.797038,17.5875651 171.691895,21.1240234 C170.586751,24.6604818 169.402669,28.3232422 168.139648,32.1123047 C167.697591,33.3753255 167.287109,34.5751953 166.908203,35.7119141 C166.024089,38.4274089 165.045247,41.2849935 163.97168,44.284668 C162.898112,47.2843424 161.28776,51.6891276 159.140625,57.4990234 C158.635417,58.9514974 158.019694,60.6407878 157.293457,62.5668945 C156.56722,64.4930013 155.951497,66.2138672 155.446289,67.7294922 C153.67806,72.5289714 151.183594,79.2861328 147.962891,88.0009766 L144.268555,97.8525391 C143.826497,99.1787109 143.416016,100.331217 143.037109,101.310059 C142.658203,102.2889 142.437174,102.873047 142.374023,103.0625 C142.310872,103.251953 142.089844,103.851888 141.710938,104.862305 C141.332031,105.872721 140.889974,107.072591 140.384766,108.461914 C139.942708,109.851237 139.532227,111.051107 139.15332,112.061523 C138.774414,113.07194 138.553385,113.671875 138.490234,113.861328 C138.23763,114.303385 137.74821,115.519043 137.021973,117.508301 C136.295736,119.497559 135.585286,121.565755 134.890625,123.712891 C134.195964,125.860026 133.722331,127.344076 133.469727,128.165039 C133.280273,128.922852 133.106608,129.696452 132.94873,130.48584 C132.790853,131.275228 132.680339,131.954102 132.617188,132.522461 C132.617188,133.027669 132.617188,133.422363 132.617188,133.706543 C132.617188,133.990723 132.648763,134.180176 132.711914,134.274902 C132.775065,134.369629 132.869792,134.448568 132.996094,134.511719 C134.385417,134.890625 137.60612,135.080078 142.658203,135.080078 C144.86849,135.080078 147.457682,135.048503 150.425781,134.985352 C156.172526,134.795898 161.966634,134.685384 167.808105,134.653809 C173.649577,134.622233 177.612305,134.701172 179.696289,134.890625 C183.043294,135.332682 185.443034,136.216797 186.895508,137.542969 C187.716471,138.363932 188.126953,139.15332 188.126953,139.911133 C188.126953,140.542643 187.874349,141.111003 187.369141,141.616211 C186.927083,142.058268 186.485026,142.279297 186.042969,142.279297 C185.664062,142.279297 185.158854,142.089844 184.527344,141.710938 C184.211589,141.458333 183.816895,141.237305 183.343262,141.047852 C182.869629,140.858398 182.411784,140.700521 181.969727,140.574219 C181.275065,140.447917 179.854167,140.35319 177.707031,140.290039 C175.559896,140.226888 173.223307,140.195312 170.697266,140.195312 C168.171224,140.195312 165.960938,140.258464 164.066406,140.384766 C159.203776,140.63737 154.404297,140.921549 149.667969,141.237305 C144.931641,141.55306 141.584635,141.805664 139.626953,141.995117 C136.532552,142.374023 134.132812,142.563477 132.427734,142.563477 C131.480469,142.563477 130.754232,142.500326 130.249023,142.374023 Z" id="path-8"></path>
        <linearGradient x1="14.3890268%" y1="31.4170895%" x2="78.510799%" y2="74.1302944%" id="linearGradient-9">
            <stop stop-color="#4B8BBE" offset="0%"></stop>
            <stop stop-color="#306998" offset="100%"></stop>
        </linearGradient>
        <path d="M211.90332,129.585938 C209.566732,129.207031 207.514323,127.896647 205.746094,125.654785 C203.977865,123.412923 202.746419,120.523763 202.051758,116.987305 C201.799154,115.597982 201.672852,113.798177 201.672852,111.587891 C201.672852,109.377604 201.830729,107.356771 202.146484,105.525391 C202.525391,102.809896 203.188477,99.8102214 204.135742,96.5263672 C205.083008,93.242513 206.125,90.2428385 207.261719,87.5273438 C207.388021,87.2747396 207.482747,87.0537109 207.545898,86.8642578 L207.545898,86.6748047 C207.482747,86.6748047 206.914388,87.3221029 205.84082,88.6166992 C204.767253,89.9112956 203.441081,91.4742839 201.862305,93.3056641 C199.462565,96.273763 197.568034,98.4998372 196.178711,99.9838867 C194.789388,101.467936 193.668457,102.462565 192.815918,102.967773 C191.963379,103.472982 191.063477,103.725586 190.116211,103.725586 L189.737305,103.725586 C186.390299,103.725586 184.085286,101.420573 182.822266,96.8105469 C182.569661,95.6738281 182.443359,94.1266276 182.443359,92.1689453 C182.443359,90.2744141 182.569661,88.5693359 182.822266,87.0537109 C184.022135,81.054362 186.169271,76.4127604 189.263672,73.1289062 C191.537109,70.8554688 193.589518,69.5766602 195.420898,69.2924805 C197.252279,69.0083008 198.546875,68.8662109 199.304688,68.8662109 C201.388672,68.8662109 203.314779,69.4029948 205.083008,70.4765625 C205.777669,70.9817708 206.519694,71.6606445 207.309082,72.5131836 C208.09847,73.3657227 208.714193,74.1708984 209.15625,74.9287109 C209.345703,75.2444661 209.503581,75.5128581 209.629883,75.7338867 C209.756185,75.9549154 209.850911,76.0654297 209.914062,76.0654297 C209.977214,76.0654297 210.103516,75.9707031 210.292969,75.78125 C210.608724,75.5917969 210.956055,75.3076172 211.334961,74.9287109 C212.787435,73.539388 214.145182,72.8447266 215.408203,72.8447266 C215.85026,72.8447266 216.292318,72.9394531 216.734375,73.1289062 C218.502604,73.6972656 219.386719,75.4023438 219.386719,78.2441406 C219.386719,79.3808594 219.213053,80.6912435 218.865723,82.175293 C218.518392,83.6593424 217.871094,85.8538411 216.923828,88.7587891 C213.38737,99.1787109 211.619141,107.672526 211.619141,114.240234 C211.619141,116.071615 211.698079,117.476725 211.855957,118.455566 C212.013835,119.434408 212.282227,120.33431 212.661133,121.155273 C213.166341,122.16569 213.703125,122.670898 214.271484,122.670898 C214.58724,122.670898 214.902995,122.576172 215.21875,122.386719 C216.734375,121.313151 218.486816,118.913411 220.476074,115.1875 C222.465332,111.461589 224.407227,107.372559 226.301758,102.92041 C228.196289,98.4682617 229.806641,94.5371094 231.132812,91.1269531 C231.701172,89.7376302 232.20638,88.5693359 232.648438,87.6220703 C233.658854,85.4749349 234.700846,84.4013672 235.774414,84.4013672 L236.058594,84.4013672 C236.753255,84.5908203 237.100586,85.1907552 237.100586,86.2011719 C237.100586,86.7695312 236.974284,87.4641927 236.72168,88.2851562 C236.469076,89.0429688 236.184896,89.8639323 235.869141,90.7480469 C234.100911,95.8632812 232.20638,101.041667 230.185547,106.283203 C228.164714,111.52474 225.922852,116.482096 223.459961,121.155273 C220.681315,126.39681 217.650065,129.207031 214.366211,129.585938 C214.050456,129.649089 213.639974,129.680664 213.134766,129.680664 C212.692708,129.680664 212.282227,129.649089 211.90332,129.585938 Z M195.326172,91.9794922 C196.020833,91.3479818 196.968099,90.4007161 198.167969,89.1376953 C199.367839,87.8746745 200.583496,86.5485026 201.814941,85.1591797 C203.046387,83.7698568 204.104167,82.569987 204.988281,81.5595703 C205.872396,80.5491536 206.346029,79.9492188 206.40918,79.7597656 C206.40918,79.6334635 206.235514,79.3966471 205.888184,79.0493164 C205.540853,78.7019857 205.130371,78.3388672 204.656738,77.9599609 C204.183105,77.5810547 203.72526,77.2652995 203.283203,77.0126953 C202.651693,76.7600911 202.020182,76.6337891 201.388672,76.6337891 C200.630859,76.6337891 199.873047,76.8232422 199.115234,77.2021484 C197.66276,77.8968099 196.462891,79.1598307 195.515625,80.9912109 C194.694661,82.5068359 193.968424,84.4171549 193.336914,86.722168 C192.705404,89.027181 192.263346,91.2216797 192.010742,93.3056641 C191.947591,93.8108724 191.916016,94.1897786 191.916016,94.4423828 C191.916016,94.6318359 191.947591,94.7265625 192.010742,94.7265625 L192.294922,94.7265625 C192.421224,94.6002604 192.768555,94.2845052 193.336914,93.7792969 C193.905273,93.2740885 194.568359,92.6741536 195.326172,91.9794922 Z" id="path-10"></path>
        <linearGradient x1="5.91383998%" y1="32.8146631%" x2="85.2961892%" y2="72.3155162%" id="linearGradient-11">
            <stop stop-color="#4B8BBE" offset="0%"></stop>
            <stop stop-color="#306998" offset="100%"></stop>
        </linearGradient>
        <path d="M265.139648,122.386719 C262.866211,121.944661 261.31901,120.271159 260.498047,117.366211 C260.371745,116.924154 260.245443,116.482096 260.119141,116.040039 C259.992839,115.597982 259.898112,115.250651 259.834961,114.998047 C259.582357,114.050781 259.456055,112.629883 259.456055,110.735352 L259.456055,109.503906 C259.519206,106.977865 259.77181,104.420247 260.213867,101.831055 C260.466471,100.252279 260.892741,98.2630208 261.492676,95.8632812 C262.092611,93.4635417 262.645182,91.5690104 263.150391,90.1796875 C264.413411,86.327474 265.392253,83.3435872 266.086914,81.2280273 C266.781576,79.1124674 267.255208,77.4705404 267.507812,76.3022461 C267.760417,75.1339518 267.918294,74.1077474 267.981445,73.2236328 C268.044596,72.7815755 268.076172,72.4026693 268.076172,72.0869141 C268.076172,71.7711589 268.044596,71.5185547 267.981445,71.3291016 C267.981445,70.9501953 267.886719,70.6660156 267.697266,70.4765625 C267.38151,70.0345052 266.939453,69.8134766 266.371094,69.8134766 C265.739583,69.8134766 264.91862,70.0976562 263.908203,70.6660156 C262.013672,71.6764323 259.803385,73.5078125 257.277344,76.1601562 C256.393229,76.9811198 255.477539,77.9599609 254.530273,79.0966797 C253.583008,80.2333984 252.746257,81.2438151 252.02002,82.1279297 C251.293783,83.0120443 250.930664,83.4856771 250.930664,83.5488281 C250.930664,83.6119792 250.82015,83.8014323 250.599121,84.1171875 C250.378092,84.4329427 250.109701,84.7802734 249.793945,85.1591797 C249.47819,85.5380859 249.051921,86.1064453 248.515137,86.8642578 C247.978353,87.6220703 247.425781,88.4272461 246.857422,89.2797852 C246.289062,90.1323242 245.799642,90.874349 245.38916,91.5058594 C244.978678,92.1373698 244.773438,92.4847005 244.773438,92.5478516 L244.489258,93.0214844 C244.299805,93.3372396 244.078776,93.7161458 243.826172,94.1582031 C243.320964,94.9791667 242.878906,95.7369792 242.5,96.4316406 C242.121094,97.1263021 241.552734,98.1367188 240.794922,99.4628906 C239.784505,101.420573 238.900391,102.762533 238.142578,103.48877 C237.384766,104.215007 236.500651,104.578125 235.490234,104.578125 C233.974609,104.578125 232.806315,103.757161 231.985352,102.115234 C231.732747,101.673177 231.57487,101.262695 231.511719,100.883789 C231.448568,100.504883 231.416992,100.094401 231.416992,99.6523438 L231.416992,98.7998047 C231.480143,95.5159505 232.001139,91.6795247 232.97998,87.2905273 C233.958822,82.9015299 235.111328,79.2545573 236.4375,76.3496094 C237.826823,73.6341146 239.46875,72.2763672 241.363281,72.2763672 C242.057943,72.2763672 242.752604,72.4342448 243.447266,72.75 C244.710286,73.3815104 245.341797,74.4866536 245.341797,76.0654297 L245.341797,76.3496094 C245.341797,76.7285156 245.215495,77.5494792 244.962891,78.8125 C244.710286,80.0755208 244.426107,81.4174805 244.110352,82.8383789 C243.794596,84.2592773 243.510417,85.4117839 243.257812,86.2958984 L243.257812,86.390625 C243.384115,86.390625 244.457682,85.0960286 246.478516,82.5068359 C252.351562,74.9287109 257.435221,69.8450521 261.729492,67.2558594 C263.813477,65.9928385 265.897461,65.3613281 267.981445,65.3613281 L268.549805,65.3613281 C270.760091,65.5507812 272.496745,66.750651 273.759766,68.9609375 C274.454427,70.5397135 274.817546,72.3237305 274.849121,74.3129883 C274.880697,76.3022461 274.770182,78.1178385 274.517578,79.7597656 C274.075521,82.2858073 273.09668,86.453776 271.581055,92.2636719 C270.254883,97.063151 269.291829,100.852214 268.691895,103.630859 C268.09196,106.409505 267.728841,108.809245 267.602539,110.830078 L267.602539,112.250977 C267.602539,114.777018 268.044596,116.040039 268.928711,116.040039 C268.991862,116.040039 269.086589,116.008464 269.212891,115.945312 C270.41276,115.566406 272.007324,113.924479 273.996582,111.019531 C275.98584,108.114583 278.022461,104.783366 280.106445,101.025879 C282.19043,97.2683919 283.958659,93.9529622 285.411133,91.0795898 C286.863607,88.2062174 287.652995,86.5800781 287.779297,86.2011719 C288.347656,85.1276042 288.789714,84.5592448 289.105469,84.4960938 C289.421224,84.4329427 289.610677,84.4013672 289.673828,84.4013672 C290.115885,84.4013672 290.431641,84.6223958 290.621094,85.0644531 C290.684245,85.3170573 290.71582,85.5696615 290.71582,85.8222656 C290.71582,86.327474 290.589518,86.9274089 290.336914,87.6220703 C289.958008,88.4430339 289.515951,89.4534505 289.010742,90.6533203 C287.874023,93.3688151 286.453125,96.5421549 284.748047,100.17334 C283.042969,103.804525 281.148438,107.372559 279.064453,110.877441 C276.980469,114.382324 274.817546,117.176758 272.575684,119.260742 C270.333822,121.344727 268.107747,122.386719 265.897461,122.386719 L265.139648,122.386719 Z" id="path-12"></path>
        <linearGradient x1="42.9812063%" y1="31.4170895%" x2="55.6193751%" y2="74.1302944%" id="linearGradient-13">
            <stop stop-color="#4B8BBE" offset="0%"></stop>
            <stop stop-color="#306998" offset="100%"></stop>
        </linearGradient>
        <path d="M306.535156,121.060547 C303.188151,120.05013 300.804199,117.950358 299.383301,114.76123 C297.962402,111.572103 297.141439,108.367188 296.92041,105.146484 C296.699382,101.925781 296.588867,99.2734375 296.588867,97.1894531 C296.588867,96.1158854 296.620443,95.1054688 296.683594,94.1582031 L296.683594,93.8740234 C296.683594,91.3479818 296.683594,89.2324219 296.683594,87.5273438 C296.683594,85.8222656 296.652018,84.9697266 296.588867,84.9697266 C296.525716,84.9697266 296.2889,85.3486328 295.878418,86.1064453 C295.467936,86.8642578 294.978516,87.8115234 294.410156,88.9482422 C293.589193,90.5270182 292.957682,91.8689779 292.515625,92.9741211 C292.073568,94.0792643 291.568359,95.5791016 291,97.4736328 C290.621094,98.7366536 290.273763,99.8575846 289.958008,100.836426 C289.642253,101.815267 289.452799,102.367839 289.389648,102.494141 C288.758138,103.315104 287.874023,103.725586 286.737305,103.725586 C286.295247,103.725586 285.963704,103.678223 285.742676,103.583496 C285.521647,103.48877 285.22168,103.251953 284.842773,102.873047 C284.337565,102.115234 284.084961,100.789062 284.084961,98.8945312 C284.084961,98.1367188 284.116536,97.2526042 284.179688,96.2421875 C284.432292,92.8320312 284.890137,89.3271484 285.553223,85.7275391 C286.216309,82.1279297 286.705729,79.538737 287.021484,77.9599609 C288.095052,73.0973307 289.294922,67.9505208 290.621094,62.5195312 C291.947266,57.0885417 293.178711,52.4469401 294.31543,48.5947266 C295.262695,45.5003255 296.367839,42.1217448 297.630859,38.4589844 C298.89388,34.796224 299.841146,32.2070312 300.472656,30.6914062 C302.556641,25.4498698 304.419596,21.4397786 306.061523,18.6611328 C307.703451,15.882487 309.566406,13.4827474 311.650391,11.4619141 C313.544922,9.63053385 315.313151,8.39908854 316.955078,7.76757812 C318.597005,7.13606771 319.986328,6.8203125 321.123047,6.8203125 C321.817708,6.8203125 322.480794,6.91503906 323.112305,7.10449219 C324.817383,7.48339844 326.222493,8.52539062 327.327637,10.2304688 C328.43278,11.9355469 328.985352,14.3352865 328.985352,17.4296875 C328.985352,23.4921875 327.138184,30.3125 323.443848,37.890625 C319.749512,45.46875 314.934245,52.257487 308.998047,58.2568359 C305.966797,61.2880859 303.188151,63.5299479 300.662109,64.9824219 L299.241211,65.8349609 C297.851888,70.2555339 296.936198,74.5498047 296.494141,78.7177734 L297.251953,77.6757812 C299.146484,75.4023438 301.088379,73.3183594 303.077637,71.4238281 C305.066895,69.5292969 306.756185,68.1715495 308.145508,67.3505859 C309.976888,66.2138672 311.713542,65.6455078 313.355469,65.6455078 C313.860677,65.6455078 314.33431,65.7086589 314.776367,65.8349609 C316.797201,66.2138672 318.375977,67.4453125 319.512695,69.5292969 C320.017904,70.6028646 320.270508,71.8027344 320.270508,73.1289062 C320.270508,74.8971354 319.765299,76.8548177 318.754883,79.0019531 C316.797201,83.296224 312.85026,85.9169922 306.914062,86.8642578 C306.219401,86.9905599 305.714193,87.0852865 305.398438,87.1484375 C305.082682,87.2115885 304.909017,87.2747396 304.877441,87.3378906 C304.845866,87.4010417 304.830078,87.4641927 304.830078,87.5273438 L304.830078,87.7167969 C305.208984,88.5377604 305.556315,92.6741536 305.87207,100.125977 C306.061523,105.17806 306.314128,108.730306 306.629883,110.782715 C306.945638,112.835124 307.482422,114.177083 308.240234,114.808594 C308.808594,115.313802 309.440104,115.566406 310.134766,115.566406 C311.082031,115.566406 312.092448,114.998047 313.166016,113.861328 C314.997396,111.840495 316.812988,109.030273 318.612793,105.430664 C320.412598,101.831055 321.991374,98.3261719 323.349121,94.9160156 C324.706868,91.5058594 325.638346,89.0745443 326.143555,87.6220703 C326.206706,87.4326172 326.269857,87.2747396 326.333008,87.1484375 C327.280273,84.811849 328.101237,83.6435547 328.795898,83.6435547 C328.922201,83.6435547 329.048503,83.6751302 329.174805,83.7382812 C329.553711,83.9908854 329.743164,84.4960938 329.743164,85.2539062 C329.743164,85.9485677 329.585286,86.8642578 329.269531,88.0009766 C328.322266,91.0953776 326.964518,94.9318034 325.196289,99.5102539 C323.42806,104.088704 321.407227,108.382975 319.133789,112.393066 C316.860352,116.403158 314.492188,119.071289 312.029297,120.397461 C310.703125,120.96582 309.440104,121.25 308.240234,121.25 C307.671875,121.25 307.103516,121.186849 306.535156,121.060547 Z M303.503906,57.9726562 C305.335286,56.3938802 307.419271,54.230957 309.755859,51.4838867 C312.092448,48.7368164 314.081706,46.1318359 315.723633,43.6689453 C316.670898,42.2164714 317.681315,40.527181 318.754883,38.6010742 C319.828451,36.6749674 320.775716,34.859375 321.59668,33.1542969 C323.301758,29.5546875 324.438477,25.3867188 325.006836,20.6503906 L325.006836,18.9453125 C325.006836,14.9036458 324.154297,12.7565104 322.449219,12.5039062 L322.070312,12.5039062 C320.238932,12.5039062 318.123372,14.3352865 315.723633,17.9980469 C313.260742,22.1028646 310.134766,30.0914714 306.345703,41.9638672 C304.135417,48.8473307 302.714518,53.4099935 302.083008,55.6518555 C301.451497,57.8937174 301.135742,59.2356771 301.135742,59.6777344 L301.135742,59.8671875 L301.230469,59.8671875 C301.29362,59.8040365 301.546224,59.5987956 301.988281,59.2514648 C302.430339,58.9041341 302.935547,58.4778646 303.503906,57.9726562 Z M306.629883,80.0439453 C307.703451,79.7913411 308.792806,79.1914062 309.897949,78.2441406 C311.003092,77.296875 311.839844,76.2548828 312.408203,75.1181641 C312.976562,73.9814453 313.323893,73.2078451 313.450195,72.7973633 C313.576497,72.3868815 313.639648,72.0869141 313.639648,71.8974609 C313.639648,71.6448568 313.576497,71.3922526 313.450195,71.1396484 C313.323893,70.8238932 313.197591,70.6344401 313.071289,70.5712891 C312.944987,70.508138 312.692383,70.4765625 312.313477,70.4765625 C311.30306,70.4765625 309.724284,71.171224 307.577148,72.5605469 C307.135091,72.813151 306.519368,73.3183594 305.72998,74.0761719 C304.940592,74.8339844 304.088053,75.6549479 303.172363,76.5390625 C302.256673,77.4231771 301.483073,78.1967773 300.851562,78.8598633 C300.220052,79.5229492 299.904297,79.9176432 299.904297,80.0439453 C299.904297,80.1070964 300.172689,80.1702474 300.709473,80.2333984 C301.246257,80.2965495 301.92513,80.328125 302.746094,80.328125 C303.503906,80.328125 304.245931,80.2965495 304.972168,80.2333984 C305.698405,80.1702474 306.250977,80.1070964 306.629883,80.0439453 Z" id="path-14"></path>
        <path d="M353.519531,129.585938 C351.182943,129.207031 349.130534,127.896647 347.362305,125.654785 C345.594076,123.412923 344.36263,120.523763 343.667969,116.987305 C343.415365,115.597982 343.289062,113.798177 343.289062,111.587891 C343.289062,109.377604 343.44694,107.356771 343.762695,105.525391 C344.141602,102.809896 344.804688,99.8102214 345.751953,96.5263672 C346.699219,93.242513 347.741211,90.2428385 348.87793,87.5273438 C349.004232,87.2747396 349.098958,87.0537109 349.162109,86.8642578 L349.162109,86.6748047 C349.098958,86.6748047 348.530599,87.3221029 347.457031,88.6166992 C346.383464,89.9112956 345.057292,91.4742839 343.478516,93.3056641 C341.078776,96.273763 339.184245,98.4998372 337.794922,99.9838867 C336.405599,101.467936 335.284668,102.462565 334.432129,102.967773 C333.57959,103.472982 332.679688,103.725586 331.732422,103.725586 L331.353516,103.725586 C328.00651,103.725586 325.701497,101.420573 324.438477,96.8105469 C324.185872,95.6738281 324.05957,94.1266276 324.05957,92.1689453 C324.05957,90.2744141 324.185872,88.5693359 324.438477,87.0537109 C325.638346,81.054362 327.785482,76.4127604 330.879883,73.1289062 C333.15332,70.8554688 335.205729,69.5766602 337.037109,69.2924805 C338.86849,69.0083008 340.163086,68.8662109 340.920898,68.8662109 C343.004883,68.8662109 344.93099,69.4029948 346.699219,70.4765625 C347.39388,70.9817708 348.135905,71.6606445 348.925293,72.5131836 C349.714681,73.3657227 350.330404,74.1708984 350.772461,74.9287109 C350.961914,75.2444661 351.119792,75.5128581 351.246094,75.7338867 C351.372396,75.9549154 351.467122,76.0654297 351.530273,76.0654297 C351.593424,76.0654297 351.719727,75.9707031 351.90918,75.78125 C352.224935,75.5917969 352.572266,75.3076172 352.951172,74.9287109 C354.403646,73.539388 355.761393,72.8447266 357.024414,72.8447266 C357.466471,72.8447266 357.908529,72.9394531 358.350586,73.1289062 C360.118815,73.6972656 361.00293,75.4023438 361.00293,78.2441406 C361.00293,79.3808594 360.829264,80.6912435 360.481934,82.175293 C360.134603,83.6593424 359.487305,85.8538411 358.540039,88.7587891 C355.003581,99.1787109 353.235352,107.672526 353.235352,114.240234 C353.235352,116.071615 353.31429,117.476725 353.472168,118.455566 C353.630046,119.434408 353.898438,120.33431 354.277344,121.155273 C354.782552,122.16569 355.319336,122.670898 355.887695,122.670898 C356.203451,122.670898 356.519206,122.576172 356.834961,122.386719 C358.350586,121.313151 360.103027,118.913411 362.092285,115.1875 C364.081543,111.461589 366.023438,107.372559 367.917969,102.92041 C369.8125,98.4682617 371.422852,94.5371094 372.749023,91.1269531 C373.317383,89.7376302 373.822591,88.5693359 374.264648,87.6220703 C375.275065,85.4749349 376.317057,84.4013672 377.390625,84.4013672 L377.674805,84.4013672 C378.369466,84.5908203 378.716797,85.1907552 378.716797,86.2011719 C378.716797,86.7695312 378.590495,87.4641927 378.337891,88.2851562 C378.085286,89.0429688 377.801107,89.8639323 377.485352,90.7480469 C375.717122,95.8632812 373.822591,101.041667 371.801758,106.283203 C369.780924,111.52474 367.539062,116.482096 365.076172,121.155273 C362.297526,126.39681 359.266276,129.207031 355.982422,129.585938 C355.666667,129.649089 355.256185,129.680664 354.750977,129.680664 C354.308919,129.680664 353.898438,129.649089 353.519531,129.585938 Z M336.942383,91.9794922 C337.637044,91.3479818 338.58431,90.4007161 339.78418,89.1376953 C340.984049,87.8746745 342.199707,86.5485026 343.431152,85.1591797 C344.662598,83.7698568 345.720378,82.569987 346.604492,81.5595703 C347.488607,80.5491536 347.96224,79.9492188 348.025391,79.7597656 C348.025391,79.6334635 347.851725,79.3966471 347.504395,79.0493164 C347.157064,78.7019857 346.746582,78.3388672 346.272949,77.9599609 C345.799316,77.5810547 345.341471,77.2652995 344.899414,77.0126953 C344.267904,76.7600911 343.636393,76.6337891 343.004883,76.6337891 C342.24707,76.6337891 341.489258,76.8232422 340.731445,77.2021484 C339.278971,77.8968099 338.079102,79.1598307 337.131836,80.9912109 C336.310872,82.5068359 335.584635,84.4171549 334.953125,86.722168 C334.321615,89.027181 333.879557,91.2216797 333.626953,93.3056641 C333.563802,93.8108724 333.532227,94.1897786 333.532227,94.4423828 C333.532227,94.6318359 333.563802,94.7265625 333.626953,94.7265625 L333.911133,94.7265625 C334.037435,94.6002604 334.384766,94.2845052 334.953125,93.7792969 C335.521484,93.2740885 336.18457,92.6741536 336.942383,91.9794922 Z" id="path-15"></path>
    </defs>
    <g id="Page-1" stroke="none" stroke-width="1" fill="none" fill-rule="evenodd">
        <g id="Pycon-Sri-Lanka" transform="translate(-264.000000, -148.000000)" fill-rule="nonzero">
            <g id="header-logo" transform="translate(264.869141, 148.436523)">
                <g id="PyCon" transform="translate(0.000000, 18.622070)" fill="#162736">
                    <path d="M49.8300781,30.0917969 C49.8300781,25.4498698 48.6090495,22.139974 46.1669922,20.1621094 C43.7249349,18.1842448 40.3040365,17.1953125 35.9042969,17.1953125 L18.5273438,17.1953125 L18.5273438,43.4726562 L35.9042969,43.4726562 C40.3040365,43.4726562 43.7249349,42.4029948 46.1669922,40.2636719 C48.6090495,38.124349 49.8300781,34.733724 49.8300781,30.0917969 Z M68.296875,29.9707031 C68.296875,40.5058594 65.6328125,47.953125 60.3046875,52.3125 C54.9765625,56.671875 47.3678385,58.8515625 37.4785156,58.8515625 L18.5273438,58.8515625 L18.5273438,90.9414062 L0,90.9414062 L0,1.6953125 L38.8710938,1.6953125 C47.8320312,1.6953125 54.9765625,3.99609375 60.3046875,8.59765625 C65.6328125,13.1992188 68.296875,20.3235677 68.296875,29.9707031 Z" id="Shape"></path>
                    <path d="M83.5546875,103.595703 L85.734375,103.716797 C87.4296875,103.797526 89.0442708,103.736979 90.578125,103.535156 C92.1119792,103.333333 93.4036458,102.869141 94.453125,102.142578 C95.4622396,101.45638 96.4007161,100.023438 97.2685547,97.84375 C98.1363932,95.6640625 98.4895833,94.3320312 98.328125,93.8476562 L74.109375,24.9453125 L93.3027344,24.9453125 L107.712891,73.625 L121.335938,24.9453125 L139.681641,24.9453125 L117.037109,89.8515625 C112.677734,102.364583 109.226562,110.124674 106.683594,113.131836 C104.140625,116.138997 99.0546875,117.642578 91.4257812,117.642578 C89.8919271,117.642578 88.6608073,117.632487 87.7324219,117.612305 C86.8040365,117.592122 85.4114583,117.521484 83.5546875,117.400391 L83.5546875,103.595703 Z" id="Path"></path>
                    <path d="M147.371094,47.0449219 C147.371094,31.4641927 151.548828,19.4557292 159.904297,11.0195312 C167.169922,3.67317708 176.413411,0 187.634766,0 C202.650391,0 213.629557,4.92447917 220.572266,14.7734375 C224.406901,20.3033854 226.465495,25.8535156 226.748047,31.4238281 L208.099609,31.4238281 C206.888672,27.1451823 205.334635,23.9160156 203.4375,21.7363281 C200.046875,17.8613281 195.021484,15.9238281 188.361328,15.9238281 C181.580078,15.9238281 176.231771,18.6585286 172.316406,24.1279297 C168.401042,29.5973307 166.443359,37.3372396 166.443359,47.3476562 C166.443359,57.3580729 168.512044,64.8557943 172.649414,69.8408203 C176.786784,74.8258464 182.044271,77.3183594 188.421875,77.3183594 C194.960938,77.3183594 199.945964,75.1790365 203.376953,70.9003906 C205.274089,68.5996094 206.848307,65.1484375 208.099609,60.546875 L226.566406,60.546875 C224.951823,70.2747396 220.824544,78.1861979 214.18457,84.28125 C207.544596,90.3763021 199.03776,93.4238281 188.664062,93.4238281 C175.828125,93.4238281 165.736979,89.3066406 158.390625,81.0722656 C151.044271,72.797526 147.371094,61.4550781 147.371094,47.0449219 Z" id="Path"></path>
                    <path d="M269.009766,78.7714844 C274.055339,78.7714844 277.930339,76.9752604 280.634766,73.3828125 C283.339193,69.7903646 284.691406,64.6842448 284.691406,58.0644531 C284.691406,51.4446615 283.339193,46.3486328 280.634766,42.7763672 C277.930339,39.2041016 274.055339,37.4179688 269.009766,37.4179688 C263.964193,37.4179688 260.079102,39.2041016 257.354492,42.7763672 C254.629883,46.3486328 253.267578,51.4446615 253.267578,58.0644531 C253.267578,64.6842448 254.629883,69.7903646 257.354492,73.3828125 C260.079102,76.9752604 263.964193,78.7714844 269.009766,78.7714844 Z M302.794922,58.0644531 C302.794922,67.7519531 300.009766,76.0367839 294.439453,82.9189453 C288.869141,89.8011068 280.41276,93.2421875 269.070312,93.2421875 C257.727865,93.2421875 249.271484,89.8011068 243.701172,82.9189453 C238.130859,76.0367839 235.345703,67.7519531 235.345703,58.0644531 C235.345703,48.5384115 238.130859,40.2838542 243.701172,33.3007812 C249.271484,26.3177083 257.727865,22.8261719 269.070312,22.8261719 C280.41276,22.8261719 288.869141,26.3177083 294.439453,33.3007812 C300.009766,40.2838542 302.794922,48.5384115 302.794922,58.0644531 Z" id="Shape"></path>
                    <path d="M351.716797,23.3710938 C358.538411,23.3710938 364.118815,25.1572266 368.458008,28.7294922 C372.797201,32.3017578 374.966797,38.2252604 374.966797,46.5 L374.966797,90.9414062 L357.287109,90.9414062 L357.287109,50.7988281 C357.287109,47.327474 356.822917,44.6634115 355.894531,42.8066406 C354.199219,39.4160156 350.970052,37.7207031 346.207031,37.7207031 C340.354167,37.7207031 336.337891,40.203125 334.158203,45.1679688 C333.027995,47.7916667 332.462891,51.1419271 332.462891,55.21875 L332.462891,90.9414062 L315.267578,90.9414062 L315.267578,25.0664062 L331.917969,25.0664062 L331.917969,34.6933594 C334.138021,31.3027344 336.236979,28.8606771 338.214844,27.3671875 C341.766927,24.703125 346.267578,23.3710938 351.716797,23.3710938 Z" id="Path"></path>
                </g>
                <g id="SriLanka" transform="translate(380.289062, 0.000000)">
                    <g id="Shape">
                        <use fill="#162736" xlink:href="#path-2"></use>
                        <use fill="url(#linearGradient-1)" xlink:href="#path-2"></use>
                    </g>
                    <g id="Shape">
                        <use fill="#162736" xlink:href="#path-4"></use>
                        <use fill="url(#linearGradient-3)" xlink:href="#path-4"></use>
                    </g>
                    <g id="Shape">
                        <use fill="#162736" xlink:href="#path-6"></use>
                        <use fill="url(#linearGradient-5)" xlink:href="#path-6"></use>
                    </g>
                    <g id="Path">
                        <use fill="#162736" xlink:href="#path-8"></use>
                        <use fill="url(#linearGradient-7)" xlink:href="#path-8"></use>
                    </g>
                    <g id="Shape">
                        <use fill="#162736" xlink:href="#path-10"></use>
                        <use fill="url(#linearGradient-9)" xlink:href="#path-10"></use>
                    </g>
                    <g id="Path">
                        <use fill="#162736" xlink:href="#path-12"></use>
                        <use fill="url(#linearGradient-11)" xlink:href="#path-12"></use>
                    </g>
                    <g id="Shape">
                        <use fill="#162736" xlink:href="#path-14"></use>
                        <use fill="url(#linearGradient-13)" xlink:href="#path-14"></use>
                    </g>
                    <g id="Shape">
                        <use fill="#162736" xlink:href="#path-15"></use>
                        <use fill="url(#linearGradient-9)" xlink:href="#path-15"></use>
                    </g>
                </g>
            </g>
        </g>
    </g>
</svg>